<?xml version="1.0" standalone="no"?>
<!DOCTYPE svg PUBLIC "-//W3C//DTD SVG 20010904//EN"
 "http://www.w3.org/TR/2001/REC-SVG-20010904/DTD/svg10.dtd">
<svg version="1.0" xmlns="http://www.w3.org/2000/svg"
 width="512.000000pt" height="512.000000pt" viewBox="0 0 512.000000 512.000000"
 preserveAspectRatio="xMidYMid meet">
<metadata>
Created by potrace 1.11, written by Peter Selinger 2001-2013
</metadata>
<g transform="translate(0.000000,512.000000) scale(0.100000,-0.100000)"
fill="#000000" stroke="none">
<path d="M1793 4250 c-17 -17 -57 -106 -256 -560 -32 -74 -65 -148 -72 -165
-90 -201 -220 -498 -231 -529 -14 -39 -14 -40 72 -240 47 -110 100 -229 116
-265 17 -36 54 -120 83 -186 29 -66 61 -140 73 -165 11 -25 58 -133 105 -240
47 -107 122 -278 167 -380 45 -102 90 -203 100 -226 23 -51 65 -73 109 -54 22
9 37 28 60 81 17 38 31 71 31 74 0 2 11 28 24 57 12 29 48 114 79 188 232 559
288 693 314 750 17 36 58 130 93 210 35 80 67 149 70 153 4 4 13 -7 20 -25 7
-18 28 -64 46 -103 17 -38 69 -153 114 -255 197 -442 253 -569 281 -628 16
-35 29 -65 29 -67 0 -2 15 -36 34 -77 18 -40 59 -131 91 -203 32 -71 67 -150
78 -175 68 -155 97 -209 115 -219 14 -8 198 -11 592 -11 l571 0 24 25 c44 43
57 6 -225 635 -73 162 -140 313 -150 335 -75 168 -389 871 -510 1140 -81 182
-176 393 -210 470 -34 77 -75 168 -91 203 -16 35 -29 65 -29 67 0 2 -15 36
-34 77 -19 40 -57 124 -85 187 -29 63 -59 120 -69 127 -26 20 -78 17 -100 -6
-10 -11 -33 -55 -52 -97 -19 -43 -47 -107 -63 -143 -33 -74 -31 -70 -127 -290
-116 -265 -339 -770 -369 -835 -16 -33 -31 -70 -35 -82 -4 -13 -10 -23 -14
-23 -4 0 -45 87 -91 193 -47 106 -94 215 -107 242 -12 28 -108 246 -214 485
-244 552 -235 534 -255 553 -23 23 -80 22 -102 -3z m103 -371 c25 -57 52 -117
59 -134 8 -16 68 -154 135 -305 67 -151 127 -288 135 -305 7 -16 65 -148 129
-293 l116 -262 -211 -508 c-116 -279 -216 -517 -223 -529 -12 -23 -5 -37 -279
587 -32 74 -72 163 -88 198 -16 35 -29 65 -29 67 0 1 -56 129 -124 284 l-125
281 43 97 c23 54 50 114 58 133 15 32 72 160 118 265 9 22 66 151 125 288 60
136 110 246 111 244 2 -2 24 -50 50 -108z m1498 -149 c38 -85 82 -184 98 -220
39 -86 42 -93 213 -475 81 -181 156 -349 166 -371 10 -23 47 -106 83 -185 184
-413 329 -737 341 -764 8 -16 68 -150 134 -298 l119 -267 -460 2 -460 3 -84
190 c-47 105 -94 210 -105 235 -57 124 -47 101 -289 645 -100 226 -215 483
-256 572 l-73 163 38 87 c22 49 83 187 136 308 53 121 104 238 114 260 10 22
51 116 92 208 l73 169 26 -54 c14 -29 57 -123 94 -208z"/>
<path d="M944 2342 c-12 -9 -30 -37 -42 -62 -11 -25 -35 -76 -52 -115 -18 -38
-88 -194 -157 -345 -69 -151 -139 -304 -155 -340 -149 -326 -178 -392 -178
-415 0 -14 11 -37 25 -50 l24 -25 576 0 576 0 24 25 c14 13 25 36 25 51 0 14
-45 126 -99 248 -54 121 -156 349 -226 506 -131 295 -140 313 -198 442 -19 42
-44 81 -55 87 -30 16 -64 13 -88 -7z m132 -448 c41 -93 82 -185 91 -204 9 -19
67 -149 129 -287 l112 -253 -423 0 -423 0 13 28 c7 15 75 162 150 327 148 325
165 360 219 478 20 44 36 84 36 90 0 28 26 -21 96 -179z"/>
</g>
</svg>
